<svg xmlns="http://www.w3.org/2000/svg" viewBox="0 0 200 200"><rect width="200" height="200" rx="100" fill="#bccddd"/><circle cx="165" cy="40" r="28" fill="#fff" opacity=".22"/><path d="M31 200v-28q6-43 69-43t69 43v28" fill="#5c7898"/><path d="M85 117h30v24q-15 14-30 0" fill="#d7a37e"/><ellipse cx="100" cy="87" rx="44" ry="51" fill="#d7a37e"/><path d="M54 99Q45 34 102 31Q151 32 148 109L134 92Q138 49 92 59L64 101" fill="#443633"/><path d="M76 87h8m34 0h8" stroke="#443633" stroke-width="4" stroke-linecap="round"/><path d="M90 115q10 8 20 0" fill="none" stroke="#6c3d38" stroke-width="3" stroke-linecap="round"/><g fill="none" stroke="#514258" stroke-width="4"><rect x="67" y="83" width="29" height="22" rx="8"/><rect x="105" y="83" width="29" height="22" rx="8"/><path d="M96 90h9"/></g><path d="M72 151l28 20 28-20" fill="none" stroke="#fff" opacity=".65" stroke-width="3"/><circle cx="100" cy="183" r="3" fill="#fff"/></svg>